<svg width="340" height="74" viewBox="0 0 340 74" fill="none" xmlns="http://www.w3.org/2000/svg">
<path d="M109.968 36.3233C109.968 39.2873 109.619 41.769 108.907 43.7403C108.208 45.7256 107.189 47.311 105.877 48.4961C104.564 49.6823 102.958 50.5088 101.086 50.9914C99.2006 51.4741 97.0788 51.7223 94.7186 51.7223H90.3612V72.8978H80.642V11.4389H94.872C97.1622 11.4389 99.2294 11.7019 101.072 12.2119C102.93 12.7219 104.508 13.5631 105.834 14.7345C107.147 15.9059 108.167 17.4504 108.893 19.3526C109.605 21.2693 109.968 23.6405 109.968 26.4668V36.3233ZM100.249 26.452C100.249 24.5634 99.8579 23.1301 99.0753 22.1652C98.2934 21.1862 96.9108 20.7035 94.9424 20.7035H90.3612V42.5404H94.5791C96.6594 42.5404 98.1259 42.0714 98.978 41.1209C99.8291 40.1828 100.249 38.5838 100.249 36.3366V26.4516V26.452ZM136.271 34.0761C136.16 34.0488 135.964 33.9657 135.699 33.828C135.42 33.6902 135.07 33.5525 134.637 33.3863C134.191 33.2212 133.702 33.0835 133.143 32.9594C132.584 32.8353 131.956 32.7806 131.272 32.7806H131.229C130.112 32.7806 129.19 33.0425 128.478 33.5525C127.753 34.0625 127.18 34.7239 126.775 35.5515C126.37 36.3791 126.076 37.3023 125.909 38.3223C125.756 39.3423 125.658 40.3631 125.63 41.3557V72.8978H116.161V24.3429H125.63V29.3617C126.231 27.6108 127.124 26.1905 128.325 25.0874C129.526 23.9855 131.146 23.4333 133.157 23.4333V23.4743C133.157 23.447 133.171 23.4333 133.199 23.4333C133.576 23.4333 134.065 23.5028 134.652 23.6269C135.238 23.7646 135.768 23.9991 136.229 24.3429L136.271 34.0765V34.0761ZM137.842 40.8173C137.842 38.4737 138.038 36.2402 138.415 34.1308C138.806 32.0077 139.532 30.1605 140.594 28.5895C141.655 27.0037 143.135 25.7632 145.034 24.8252C146.92 23.902 149.405 23.433 152.449 23.433C155.508 23.433 157.979 23.902 159.878 24.8533C161.778 25.7902 163.258 27.0583 164.32 28.6437C165.381 30.2432 166.093 32.0767 166.471 34.1725C166.834 36.2542 167.015 38.4593 167.015 40.7759V56.3821C167.015 58.7256 166.834 60.9455 166.471 63.0546C166.093 65.1503 165.395 66.9964 164.362 68.5685C163.329 70.1406 161.862 71.3948 159.977 72.3317C158.105 73.256 155.634 73.7247 152.575 73.7247C149.49 73.7247 147.004 73.2556 145.091 72.3317C143.177 71.3948 141.683 70.1403 140.607 68.5549C139.532 66.9554 138.806 65.1082 138.415 63.0124C138.038 60.903 137.842 58.6972 137.842 56.3817V40.8169V40.8173ZM152.449 32.4498C151.249 32.4498 150.312 32.6843 149.656 33.1385C148.986 33.5938 148.484 34.2006 148.134 34.9584C147.799 35.7165 147.59 36.5851 147.506 37.5501C147.422 38.5291 147.38 39.5355 147.38 40.5972V56.5608C147.38 57.5535 147.408 58.5462 147.478 59.4975C147.547 60.4628 147.743 61.3174 148.078 62.0755C148.399 62.8337 148.902 63.4405 149.587 63.9231C150.271 64.391 151.221 64.6255 152.449 64.6255C153.622 64.6255 154.544 64.391 155.214 63.9368C155.885 63.4814 156.387 62.8747 156.722 62.1306C157.072 61.3861 157.281 60.5311 157.364 59.5669C157.449 58.5879 157.49 57.5808 157.49 56.5198V40.5972C157.49 39.5901 157.449 38.6118 157.379 37.6332C157.309 36.6679 157.113 35.7993 156.792 35.0278C156.457 34.2549 155.954 33.6348 155.27 33.1529C154.599 32.6839 153.65 32.4494 152.449 32.4494L152.449 32.4498Z" fill="#FEFEFE"/>
<path fill-rule="evenodd" clip-rule="evenodd" d="M72.8546 72.0844C72.8546 66.0729 72.8819 60.0519 72.9091 54.0345C72.9361 48.0673 72.963 42.1036 72.9634 36.1565C72.9646 27.8121 69.9698 19.1573 64.5792 13.0316C63.6205 11.9413 63.0456 11.3823 62.5035 10.8553L62.5035 10.8552C62.0961 10.459 61.7072 10.0809 61.1877 9.50869C59.4192 7.55787 54.1911 4.33851 51.6307 3.23579C47.025 1.25272 42.2717 0.0149103 36.6081 0.000111273C29.0315 -0.0184824 21.6636 2.29396 15.7909 6.34852C13.3454 8.03561 12.7189 8.58963 10.7724 10.5112C10.5514 10.7295 10.3527 10.9247 10.172 11.1023C8.60448 12.6424 8.38267 12.8604 6.59292 15.3638C-5.25503 31.9361 -0.445583 54.7346 15.5134 65.5375C21.6117 69.666 28.3561 72.0441 36.3237 72.0745C39.3649 72.0861 42.4267 72.1063 45.4988 72.1266C54.6151 72.1869 63.8228 72.2478 72.8546 72.0844ZM47.0885 51.4556L47.0205 51.3857L47.0204 51.3856C46.3485 50.6953 45.5004 49.8241 44.8983 49.2516C40.7803 51.8787 36.238 52.8732 31.9567 52.4885C21.511 51.5516 13.703 42.3712 14.3668 32.0992C14.6151 28.2617 16.0839 24.5111 18.7381 21.1532C19.5595 20.1139 20.567 19.1299 21.6682 18.2606C22.7906 17.3753 24.0168 16.6034 25.2546 16.0046C26.357 15.4711 27.5405 15.0237 28.7817 14.6936C29.9683 14.3779 31.2202 14.1601 32.5156 14.0645C37.5184 13.6933 42.3367 15.2966 46.0856 18.2526C49.7957 21.1718 52.4549 25.4195 53.2102 30.3863C53.507 32.3481 53.4974 34.3448 53.1964 36.2774C52.8947 38.2214 52.295 40.113 51.4201 41.8453L50.4165 43.5893C50.9124 44.0591 51.4209 44.585 51.8999 45.081L52.7924 45.9856L60.6016 53.7046L60.9203 54.0018C62.5808 55.4866 63.2174 57.0067 61.9473 59.1329C61.5357 59.8185 60.9468 60.36 60.2856 60.7126C59.6037 61.081 58.83 61.2529 58.0777 61.1914C57.2782 61.1262 56.5052 60.7998 55.8836 60.1802L47.9368 52.3215L47.0877 51.4559L47.0885 51.4556ZM201.486 13.9043C201.486 12.2912 201.934 11.1062 202.841 10.362C203.735 9.6031 205.145 9.23085 207.044 9.23085C209.069 9.23085 210.522 9.6031 211.402 10.362C212.295 11.1065 212.743 12.2916 212.743 13.9043C212.743 15.5174 212.295 16.7032 211.402 17.4477C210.522 18.2059 209.069 18.5782 207.044 18.5782C205.145 18.5782 203.735 18.2059 202.841 17.4477C201.934 16.7032 201.486 15.5174 201.486 13.9043ZM202.408 72.9225V24.3676H211.877V72.9225H202.408ZM237.396 72.9225V40.6075C237.396 39.6296 237.369 38.6643 237.312 37.6989C237.257 36.7199 237.075 35.865 236.768 35.1072C236.446 34.349 235.971 33.7422 235.315 33.2596C234.659 32.7906 233.724 32.5572 232.494 32.5572C231.349 32.5572 230.427 32.8463 229.757 33.4258C229.073 34.0041 228.556 34.7349 228.193 35.6308C227.844 36.5275 227.62 37.5058 227.509 38.6085C227.397 39.6979 227.341 40.7733 227.341 41.8206V72.9222H217.872V24.3672H227.341V29.1788C227.705 28.3933 228.165 27.6625 228.738 26.9874C229.31 26.2976 229.953 25.7048 230.692 25.1949C231.433 24.6849 232.243 24.2853 233.123 23.9813C234.003 23.6922 234.938 23.5408 235.916 23.5408C238.402 23.5408 240.37 24.0098 241.823 24.933C243.276 25.8711 244.378 27.1252 245.132 28.7098C245.873 30.2956 246.348 32.1428 246.557 34.2249C246.766 36.3207 246.864 38.5129 246.864 40.842V72.9225H237.396ZM271.072 72.9225V68.4422C270.779 69.2414 270.402 69.9722 269.968 70.6063C269.536 71.2552 269.019 71.8062 268.432 72.2748C267.845 72.7438 267.175 73.1161 266.421 73.3642C265.653 73.6261 264.787 73.7501 263.796 73.7501C261.157 73.7501 259.034 73.2811 257.413 72.3571C255.793 71.4339 254.537 70.1657 253.671 68.5803C252.805 66.9946 252.218 65.1473 251.912 63.0516C251.618 60.9421 251.464 58.7375 251.464 56.4208V40.8705C251.464 38.5269 251.604 36.307 251.897 34.2116C252.177 32.1022 252.763 30.2686 253.643 28.6965C254.536 27.1119 255.779 25.8566 257.372 24.9334C258.964 24.0102 261.058 23.5412 263.684 23.5412C265.667 23.5412 267.245 24.0511 268.39 25.0575C269.549 26.0638 270.443 27.401 271.071 29.0415V9.56174H280.539V72.9225H271.072ZM266.031 64.7337C267.107 64.7337 267.971 64.4856 268.628 64.0029C269.284 63.5202 269.787 62.8861 270.137 62.1006C270.485 61.3288 270.722 60.4458 270.848 59.4531C270.974 58.4741 271.044 57.4814 271.072 56.4891V41.821C271.072 40.8147 271.044 39.781 270.974 38.7056C270.905 37.6298 270.709 36.6375 270.374 35.728C270.052 34.8321 269.55 34.0876 268.88 33.5085C268.195 32.9302 267.246 32.6399 266.031 32.6399C264.858 32.6399 263.936 32.8744 263.28 33.3298C262.61 33.784 262.107 34.3908 261.771 35.1216C261.436 35.8661 261.227 36.7347 261.143 37.7133C261.059 38.6923 261.017 39.7123 261.017 40.7604V56.6557C261.017 57.6484 261.045 58.6274 261.115 59.6061C261.184 60.5703 261.38 61.4389 261.716 62.1834C262.036 62.9423 262.539 63.5483 263.21 64.031C263.894 64.5 264.829 64.7345 266.031 64.7345L266.031 64.7337ZM315.026 56.5722V57.4966C315.026 59.7161 314.843 61.7971 314.466 63.7824C314.103 65.7541 313.405 67.4772 312.372 68.9526C311.338 70.4416 309.873 71.5994 307.973 72.4676C306.074 73.3225 303.616 73.7501 300.586 73.7501C297.513 73.7501 295.013 73.2811 293.086 72.3571C291.159 71.4202 289.665 70.1657 288.603 68.5803C287.542 66.9809 286.816 65.1337 286.439 63.0379C286.062 60.9285 285.867 58.7227 285.867 56.4072V40.8424C285.867 38.4988 286.062 36.2653 286.439 34.1559C286.816 32.0328 287.542 30.1855 288.603 28.6146C289.665 27.0288 291.146 25.7883 293.045 24.8503C294.944 23.9271 297.416 23.458 300.474 23.458C303.518 23.458 305.99 23.8997 307.889 24.7957C309.788 25.6779 311.269 26.8774 312.33 28.3937C313.392 29.9101 314.103 31.6469 314.466 33.6322C314.843 35.6176 315.026 37.6993 315.026 39.8914V49.9688L295.251 53.691V56.5172C295.251 57.5099 295.293 58.5026 295.376 59.4675C295.46 60.4454 295.67 61.314 296.034 62.0866C296.382 62.8448 296.9 63.4652 297.583 63.9479C298.267 64.4157 299.217 64.6502 300.446 64.6502C301.619 64.6502 302.54 64.4442 303.225 64.0435C303.909 63.6439 304.412 63.1066 304.761 62.4452C305.097 61.7963 305.32 61.0385 305.417 60.1836C305.515 59.3435 305.557 58.4737 305.557 57.5782V56.5719H315.026V56.5722ZM300.446 32.4745C299.245 32.4745 298.309 32.709 297.625 33.1632C296.941 33.6185 296.424 34.2253 296.075 34.9971C295.712 35.769 295.488 36.6375 295.39 37.6302C295.293 38.6092 295.251 39.63 295.251 40.6773V45.4331L305.557 43.3373V39.6983C305.557 38.8707 305.515 38.0169 305.431 37.162C305.348 36.2934 305.138 35.5208 304.803 34.8184C304.454 34.1149 303.951 33.5502 303.267 33.1226C302.583 32.6957 301.646 32.4748 300.446 32.4748L300.446 32.4745ZM340 34.1012C339.889 34.0739 339.693 33.9908 339.428 33.853C339.149 33.7153 338.8 33.5776 338.366 33.4114C337.92 33.2463 337.431 33.1085 336.873 32.9845C336.313 32.8604 335.685 32.8057 335.001 32.8057H334.958C333.841 32.8057 332.92 33.0676 332.207 33.5776C331.482 34.0876 330.909 34.749 330.504 35.5766C330.099 36.4042 329.805 37.3274 329.638 38.3474C329.485 39.3674 329.387 40.3882 329.359 41.3808V72.9229H319.89V24.368H329.359V29.3868C329.96 27.6359 330.854 26.2156 332.054 25.1125C333.256 24.0105 334.875 23.4584 336.887 23.4584V23.4994C336.887 23.4721 336.9 23.4584 336.928 23.4584C337.305 23.4584 337.794 23.5279 338.381 23.652C338.967 23.7897 339.497 24.0242 339.959 24.368L340 34.1012ZM181.943 20.7282V38.761H195.447V48.0244H181.943V72.9225H172.223V11.4636H198.436V20.7282H181.943Z" fill="#FF9000"/>
</svg>
